<svg width="38" height="38" viewBox="0 0 38 38" fill="none" xmlns="http://www.w3.org/2000/svg">
<path d="M13.0179 4.375V9.125H18.3214H20.6786H25.9821V4.375H13.0179ZM10.6607 4.375H7.71429C6.41049 4.375 5.35714 5.43633 5.35714 6.75V9.125H10.6607V4.375ZM5.35714 11.5V17.4375H10.6607H13.0179H18.3214V11.5H5.35714ZM5.35714 25.75H10.6607V19.8125H5.35714V25.75ZM5.35714 28.125V30.5C5.35714 31.8137 6.41049 32.875 7.71429 32.875H18.3214V28.125H13.0179H10.6607H5.35714ZM13.0179 25.75H25.9821V19.8125H13.0179V25.75ZM28.3393 25.75H33.6429V19.8125H28.3393V25.75ZM33.6429 28.125H28.3393H25.9821H20.6786V32.875H31.2857C32.5895 32.875 33.6429 31.8137 33.6429 30.5V28.125ZM33.6429 11.5H20.6786V17.4375H25.9821H28.3393H33.6429V11.5ZM33.6429 9.125V6.75C33.6429 5.43633 32.5895 4.375 31.2857 4.375H28.3393V9.125H33.6429ZM3 6.75C3 4.13008 5.11406 2 7.71429 2H31.2857C33.8859 2 36 4.13008 36 6.75V30.5C36 33.1199 33.8859 35.25 31.2857 35.25H7.71429C5.11406 35.25 3 33.1199 3 30.5V6.75Z" fill="black"/>
</svg>
