<svg width="38" height="38" viewBox="0 0 38 38" fill="none" xmlns="http://www.w3.org/2000/svg">
<g clip-path="url(#clip0_294_1021)">
<path d="M37.9555 17.8125C37.9852 17.4191 38 17.0258 38 16.625C38 7.44414 30.5559 0 21.375 0C20.9742 0 20.5809 0.0148438 20.1875 0.0445313V17.8125H37.9555ZM13.0625 21.375V24.9375H16.625H31.2535C29.2941 30.4742 24.0172 34.4375 17.8125 34.4375C9.94531 34.4375 3.5625 28.0547 3.5625 20.1875C3.5625 13.9828 7.52578 8.70586 13.0625 6.74648V21.375ZM35.5879 21.375H32.018H20.1875H16.625V17.8125V5.98945V2.41953C15.4004 2.50117 14.2055 2.70156 13.0625 3.0207C5.5293 5.09141 0 11.9937 0 20.1875C0 30.0289 7.97852 38 17.8125 38C26.0063 38 32.9086 32.4707 34.9867 24.9375C35.3059 23.7945 35.5062 22.5996 35.5879 21.375Z" fill="black"/>
</g>
<defs>
<clipPath id="clip0_294_1021">
<rect width="38" height="38" fill="white"/>
</clipPath>
</defs>
</svg>
