<svg width="38" height="38" viewBox="0 0 38 38" fill="none" xmlns="http://www.w3.org/2000/svg">
<g clip-path="url(#clip0_294_1046)">
<path d="M16.9643 0V2.03526V9.49788C16.9643 12.5847 17.9652 15.5782 19.8143 18.046L21.4429 20.2169C23.8179 23.3885 25.1071 27.247 25.1071 31.2073V35.9563V37.9915H21.0357V35.9563V31.2073C21.0357 28.129 20.0348 25.127 18.1857 22.6592L16.5571 20.4883C14.1821 17.3167 12.8929 13.4582 12.8929 9.49788V2.03526V0H16.9643ZM4.07143 5.42736V7.46262V10.6766C4.07143 13.4921 4.90268 16.2397 6.46339 18.5802L9.13527 22.5914C11.1455 25.6019 12.2143 29.1381 12.2143 32.7507V35.9647V38H8.14286V35.9647V32.7507C8.14286 29.9353 7.31161 27.1877 5.75089 24.8471L3.07902 20.836C1.06875 17.8255 0 14.2892 0 10.6766V7.46262V5.42736H4.07143ZM29.8571 7.46262V10.6766C29.8571 13.4921 30.6884 16.2397 32.2491 18.5802L34.921 22.5914C36.9312 25.6019 38 29.1381 38 32.7507V35.9647V38H33.9286V35.9647V32.7507C33.9286 29.9353 33.0973 27.1877 31.5366 24.8471L28.8647 20.836C26.8545 17.8255 25.7857 14.2892 25.7857 10.6766V7.46262V5.42736H29.8571V7.46262Z" fill="black"/>
</g>
<defs>
<clipPath id="clip0_294_1046">
<rect width="38" height="38" fill="white"/>
</clipPath>
</defs>
</svg>
