<svg width="38" height="38" viewBox="0 0 38 38" fill="black" xmlns="http://www.w3.org/2000/svg">
    <path
        d="M9.5 4L7.10125 7.65625L2.78469 6.74805L3.71094 11.0078L0 13.375L3.705 15.7422L2.78469 20.002L7.10125 19.0879L7.57031 19.8027L8.82313 18.7949L9.67812 18.1152C9.61875 18.1152 9.55938 18.1211 9.50594 18.1211C6.88156 18.1211 4.75594 16.0234 4.75594 13.4336C4.75594 10.8437 6.88156 8.74609 9.50594 8.74609C12.1303 8.74609 14.2559 10.8437 14.2559 13.4336C14.2559 13.8203 14.2084 14.1895 14.1194 14.5527L17.0941 12.1621L15.295 11.0137L16.2213 6.75391L11.8987 7.65625L9.5 4ZM12.35 13.375C12.35 12.6291 12.0497 11.9137 11.5153 11.3863C10.9808 10.8588 10.2559 10.5625 9.5 10.5625C8.74413 10.5625 8.01922 10.8588 7.48475 11.3863C6.95027 11.9137 6.65 12.6291 6.65 13.375C6.65 14.1209 6.95027 14.8363 7.48475 15.3637C8.01922 15.8912 8.74413 16.1875 9.5 16.1875C10.2559 16.1875 10.9808 15.8912 11.5153 15.3637C12.0497 14.8363 12.35 14.1209 12.35 13.375ZM24.6406 10.4043L23.75 9.70117L22.8594 10.4043L10.9844 19.7793L9.87406 20.6582L11.6553 22.8555L12.7656 21.9766L13.3 21.5547V32.5938V34H14.725H32.775H34.2V32.5938V21.5488L34.7344 21.9707L35.8447 22.8496L37.6259 20.6523L36.5156 19.7734L24.6406 10.3984V10.4043ZM31.35 19.2988V31.1875H16.15V19.2988L23.75 13.2988L31.35 19.2988ZM20.9 20.875V26.5H26.6V20.875H20.9Z"
    />
</svg>