<svg width="34" height="38" viewBox="0 0 34 38" fill="none" xmlns="http://www.w3.org/2000/svg">
<path d="M30 34.825C30 35.6147 29.3647 36.25 28.575 36.25H1.025C0.235313 36.25 -0.4 35.6147 -0.4 34.825C-0.4 34.0353 0.235313 33.4 1.025 33.4H28.575C29.3647 33.4 30 34.0353 30 34.825ZM24.3 27.225C24.3 28.0147 23.6647 28.65 22.875 28.65H1.025C0.235313 28.65 -0.4 28.0147 -0.4 27.225C-0.4 26.4353 0.235313 25.8 1.025 25.8H22.875C23.6647 25.8 24.3 26.4353 24.3 27.225ZM18.6 19.625C18.6 20.4147 17.9647 21.05 17.175 21.05H1.025C0.235313 21.05 -0.4 20.4147 -0.4 19.625C-0.4 18.8353 0.235313 18.2 1.025 18.2H17.175C17.9647 18.2 18.6 18.8353 18.6 19.625ZM12.9 12.025C12.9 12.8147 12.2647 13.45 11.475 13.45H1.025C0.235313 13.45 -0.4 12.8147 -0.4 12.025C-0.4 11.2353 0.235313 10.6 1.025 10.6H11.475C12.2647 10.6 12.9 11.2353 12.9 12.025ZM7.2 4.425C7.2 5.21469 6.56469 5.85 5.775 5.85H1.025C0.235313 5.85 -0.4 5.21469 -0.4 4.425C-0.4 3.63531 0.235313 3 1.025 3H5.775C6.56469 3 7.2 3.63531 7.2 4.425Z" fill="black"/>
</svg>
