<svg width="38" height="38" viewBox="0 0 38 38" fill="none" xmlns="http://www.w3.org/2000/svg">
<path d="M0.836927 4.87316C-0.278974 3.75726 -0.278974 1.95283 0.836927 0.848797C1.95283 -0.255233 3.75726 -0.267104 4.86129 0.848797L18.9881 14.9756L33.1268 0.836926C34.2427 -0.278975 36.0472 -0.278975 37.1512 0.836926C38.2552 1.95283 38.2671 3.75726 37.1512 4.86129L23.0244 18.9881L37.1631 33.1268C38.279 34.2427 38.279 36.0472 37.1631 37.1512C36.0472 38.2552 34.2427 38.2671 33.1387 37.1512L19.0119 23.0244L4.87317 37.1631C3.75726 38.279 1.95283 38.279 0.848799 37.1631C-0.255231 36.0472 -0.267102 34.2427 0.848799 33.1387L14.9756 19.0119L0.836927 4.87316Z" fill="black"/>
</svg>
